<mxfile host="app.diagrams.net" modified="2020-07-19T22:44:15.911Z" agent="5.0 (Windows NT 10.0; Win64; x64) AppleWebKit/537.36 (KHTML, like Gecko) Chrome/84.0.4147.89 Safari/537.36" etag="aR4FZ-CFxG7MIeh1_t12" version="13.4.8" type="github">
  <diagram name="Page-1" id="822b0af5-4adb-64df-f703-e8dfc1f81529">
    <mxGraphModel dx="1564" dy="1788" grid="1" gridSize="10" guides="1" tooltips="1" connect="1" arrows="1" fold="1" page="1" pageScale="1" pageWidth="1100" pageHeight="850" background="#ffffff" math="0" shadow="0">
      <root>
        <mxCell id="0" />
        <mxCell id="1" parent="0" />
        <mxCell id="7d933b09d9755ecc-12" value="User forest" style="triangle;whiteSpace=wrap;html=1;rounded=0;shadow=0;comic=0;strokeWidth=1;fontFamily=Verdana;direction=north;labelPosition=center;verticalLabelPosition=bottom;align=center;verticalAlign=top;noLabel=1;fontColor=none;" parent="1" vertex="1">
          <mxGeometry x="400.25" y="70" width="286" height="340" as="geometry" />
        </mxCell>
        <mxCell id="7d933b09d9755ecc-13" value="" style="ellipse;whiteSpace=wrap;html=1;rounded=0;shadow=0;comic=0;strokeWidth=1;fontFamily=Verdana;" parent="1" vertex="1">
          <mxGeometry x="472.25" y="301.5" width="142" height="94" as="geometry" />
        </mxCell>
        <mxCell id="7d933b09d9755ecc-6" value="Users" style="verticalLabelPosition=bottom;aspect=fixed;html=1;verticalAlign=top;strokeColor=none;shape=mxgraph.citrix.users;rounded=0;shadow=0;comic=0;fontFamily=Verdana;" parent="1" vertex="1">
          <mxGeometry x="510.25" y="314.5" width="64.5" height="55" as="geometry" />
        </mxCell>
        <mxCell id="7d933b09d9755ecc-27" value="Synchronization" style="rounded=0;html=1;labelBackgroundColor=none;startArrow=none;startFill=0;endArrow=block;endFill=1;strokeWidth=1;fontFamily=Verdana;fontSize=12;noLabel=1;fontColor=none;" parent="1" source="GsRS7Hcqm9zWdbR_pRK4-19" target="GsRS7Hcqm9zWdbR_pRK4-33" edge="1">
          <mxGeometry x="-0.3348" y="21" relative="1" as="geometry">
            <mxPoint as="offset" />
            <mxPoint x="1240" y="167" as="sourcePoint" />
            <mxPoint x="1733.8379999999997" y="167.48000000000002" as="targetPoint" />
          </mxGeometry>
        </mxCell>
        <mxCell id="GsRS7Hcqm9zWdbR_pRK4-3" value="" style="verticalLabelPosition=bottom;aspect=fixed;html=1;verticalAlign=top;strokeColor=none;align=center;outlineConnect=0;shape=mxgraph.citrix.xenclient;" vertex="1" parent="1">
          <mxGeometry x="485.75" y="200" width="91" height="77" as="geometry" />
        </mxCell>
        <mxCell id="GsRS7Hcqm9zWdbR_pRK4-4" value="Synchronization" style="rounded=0;html=1;labelBackgroundColor=none;startArrow=none;startFill=0;endArrow=block;endFill=1;strokeWidth=1;fontFamily=Verdana;fontSize=12;noLabel=1;fontColor=none;" edge="1" parent="1" target="GsRS7Hcqm9zWdbR_pRK4-22">
          <mxGeometry x="-0.3348" y="21" relative="1" as="geometry">
            <mxPoint as="offset" />
            <mxPoint x="554.16" y="99.88310580631163" as="sourcePoint" />
            <mxPoint x="1062" y="109" as="targetPoint" />
          </mxGeometry>
        </mxCell>
        <mxCell id="GsRS7Hcqm9zWdbR_pRK4-10" value="" style="endArrow=classic;html=1;fontColor=none;" edge="1" parent="1" target="GsRS7Hcqm9zWdbR_pRK4-19">
          <mxGeometry width="50" height="50" relative="1" as="geometry">
            <mxPoint x="1437" y="400" as="sourcePoint" />
            <mxPoint x="1159.3649999999998" y="184.62300000000005" as="targetPoint" />
          </mxGeometry>
        </mxCell>
        <mxCell id="GsRS7Hcqm9zWdbR_pRK4-11" value="" style="endArrow=classic;html=1;fontColor=none;" edge="1" parent="1" source="GsRS7Hcqm9zWdbR_pRK4-22" target="7d933b09d9755ecc-12">
          <mxGeometry width="50" height="50" relative="1" as="geometry">
            <mxPoint x="1062.9999999999995" y="136.73999999999995" as="sourcePoint" />
            <mxPoint x="499.5250000000002" y="109.99649999999993" as="targetPoint" />
          </mxGeometry>
        </mxCell>
        <mxCell id="GsRS7Hcqm9zWdbR_pRK4-13" value="TCP/IP" style="text;strokeColor=none;fillColor=none;html=1;fontSize=24;fontStyle=1;verticalAlign=middle;align=center;" vertex="1" parent="1">
          <mxGeometry x="493.5" y="159" width="100" height="40" as="geometry" />
        </mxCell>
        <mxCell id="GsRS7Hcqm9zWdbR_pRK4-15" value="WebServer&lt;br&gt;&lt;span style=&quot;font-weight: normal&quot;&gt;Nginx&lt;/span&gt;" style="text;strokeColor=none;fillColor=none;html=1;fontSize=24;fontStyle=1;verticalAlign=middle;align=center;" vertex="1" parent="1">
          <mxGeometry x="1386.42" y="10" width="100" height="40" as="geometry" />
        </mxCell>
        <mxCell id="GsRS7Hcqm9zWdbR_pRK4-19" value="" style="verticalLabelPosition=bottom;aspect=fixed;html=1;verticalAlign=top;strokeColor=none;align=center;outlineConnect=0;shape=mxgraph.citrix.web_server;fontColor=none;" vertex="1" parent="1">
          <mxGeometry x="1392.5" y="74.5" width="89.68" height="105.5" as="geometry" />
        </mxCell>
        <mxCell id="GsRS7Hcqm9zWdbR_pRK4-21" value="" style="verticalLabelPosition=bottom;aspect=fixed;html=1;verticalAlign=top;strokeColor=none;align=center;outlineConnect=0;shape=mxgraph.citrix.cloud;fontColor=none;" vertex="1" parent="1">
          <mxGeometry x="670" y="-18" width="183.88" height="120" as="geometry" />
        </mxCell>
        <mxCell id="GsRS7Hcqm9zWdbR_pRK4-22" value="" style="verticalLabelPosition=bottom;aspect=fixed;html=1;verticalAlign=top;strokeColor=none;align=center;outlineConnect=0;shape=mxgraph.citrix.dns_server;fontColor=none;" vertex="1" parent="1">
          <mxGeometry x="963.5" y="66.5" width="76.5" height="92.5" as="geometry" />
        </mxCell>
        <mxCell id="GsRS7Hcqm9zWdbR_pRK4-24" value="IP DNS&lt;span style=&quot;color: rgba(0 , 0 , 0 , 0) ; font-family: monospace ; font-size: 0px ; font-weight: 400&quot;&gt;%3CmxGraphModel%3E%3Croot%3E%3CmxCell%20id%3D%220%22%2F%3E%3CmxCell%20id%3D%221%22%20parent%3D%220%22%2F%3E%3CmxCell%20id%3D%222%22%20value%3D%22%22%20style%3D%22endArrow%3Dclassic%3Bhtml%3D1%3BfontColor%3Dnone%3BentryX%3D0.979%3BentryY%3D1.009%3BentryDx%3D0%3BentryDy%3D0%3BentryPerimeter%3D0%3BexitX%3D0.694%3BexitY%3D0.385%3BexitDx%3D0%3BexitDy%3D0%3BexitPerimeter%3D0%3B%22%20edge%3D%221%22%20parent%3D%221%22%3E%3CmxGeometry%20width%3D%2250%22%20height%3D%2250%22%20relative%3D%221%22%20as%3D%22geometry%22%3E%3CmxPoint%20x%3D%221690.1099999999997%22%20y%3D%22180.03999999999996%22%20as%3D%22sourcePoint%22%2F%3E%3CmxPoint%20x%3D%221126.6350000000002%22%20y%3D%22153.29649999999992%22%20as%3D%22targetPoint%22%2F%3E%3C%2FmxGeometry%3E%3C%2FmxCell%3E%3C%2Froot%3E%3C%2FmxGraphModel%3E&lt;/span&gt;" style="text;strokeColor=none;fillColor=none;html=1;fontSize=24;fontStyle=1;verticalAlign=middle;align=center;" vertex="1" parent="1">
          <mxGeometry x="940" y="22" width="100" height="40" as="geometry" />
        </mxCell>
        <mxCell id="GsRS7Hcqm9zWdbR_pRK4-17" value="&lt;span style=&quot;font-weight: normal&quot;&gt;&lt;font style=&quot;font-size: 20px&quot;&gt;www.foobar.com&lt;br&gt;8.8.8.8&lt;br&gt;&lt;/font&gt;&lt;/span&gt;" style="text;strokeColor=none;fillColor=none;html=1;fontSize=24;fontStyle=1;verticalAlign=middle;align=center;" vertex="1" parent="1">
          <mxGeometry x="720" y="2" width="100" height="64.5" as="geometry" />
        </mxCell>
        <mxCell id="GsRS7Hcqm9zWdbR_pRK4-31" value="" style="endArrow=classic;html=1;fontColor=none;" edge="1" parent="1" source="GsRS7Hcqm9zWdbR_pRK4-22" target="GsRS7Hcqm9zWdbR_pRK4-19">
          <mxGeometry width="50" height="50" relative="1" as="geometry">
            <mxPoint x="1070" y="400" as="sourcePoint" />
            <mxPoint x="1380" y="90" as="targetPoint" />
          </mxGeometry>
        </mxCell>
        <mxCell id="GsRS7Hcqm9zWdbR_pRK4-32" value="" style="endArrow=classic;html=1;fontColor=none;exitX=-0.033;exitY=0.95;exitDx=0;exitDy=0;exitPerimeter=0;" edge="1" parent="1" source="GsRS7Hcqm9zWdbR_pRK4-19" target="GsRS7Hcqm9zWdbR_pRK4-22">
          <mxGeometry width="50" height="50" relative="1" as="geometry">
            <mxPoint x="1070" y="400" as="sourcePoint" />
            <mxPoint x="1120" y="350" as="targetPoint" />
          </mxGeometry>
        </mxCell>
        <mxCell id="GsRS7Hcqm9zWdbR_pRK4-33" value="" style="verticalLabelPosition=bottom;aspect=fixed;html=1;verticalAlign=top;strokeColor=none;align=center;outlineConnect=0;shape=mxgraph.citrix.file_server;fontColor=none;" vertex="1" parent="1">
          <mxGeometry x="1400" y="410" width="72.84" height="99.51" as="geometry" />
        </mxCell>
        <mxCell id="GsRS7Hcqm9zWdbR_pRK4-34" value="App Server&lt;span style=&quot;font-weight: normal&quot;&gt;&lt;br&gt;App Files&lt;/span&gt;" style="text;strokeColor=none;fillColor=none;html=1;fontSize=24;fontStyle=1;verticalAlign=middle;align=center;" vertex="1" parent="1">
          <mxGeometry x="1490" y="425" width="100" height="40" as="geometry" />
        </mxCell>
        <mxCell id="GsRS7Hcqm9zWdbR_pRK4-35" value="" style="verticalLabelPosition=bottom;aspect=fixed;html=1;verticalAlign=top;strokeColor=none;align=center;outlineConnect=0;shape=mxgraph.citrix.database;fontColor=none;" vertex="1" parent="1">
          <mxGeometry x="1190" y="421.47" width="62.5" height="73.53" as="geometry" />
        </mxCell>
        <mxCell id="GsRS7Hcqm9zWdbR_pRK4-36" value="" style="endArrow=classic;startArrow=classic;html=1;fontColor=none;" edge="1" parent="1" source="GsRS7Hcqm9zWdbR_pRK4-35" target="GsRS7Hcqm9zWdbR_pRK4-33">
          <mxGeometry width="50" height="50" relative="1" as="geometry">
            <mxPoint x="1290" y="480" as="sourcePoint" />
            <mxPoint x="1340" y="430" as="targetPoint" />
          </mxGeometry>
        </mxCell>
      </root>
    </mxGraphModel>
  </diagram>
</mxfile>
